<svg width="57" height="103" viewBox="0 0 57 103" fill="none" xmlns="http://www.w3.org/2000/svg">
<path d="M8.51724 4.15789L0 16.9514V35.1822H14.7414C14.523 33.583 14.2172 29.617 14.7414 26.5466C15.3966 22.7085 20.3103 16.9514 23.5862 16.9514C26.8621 16.9514 35.7069 19.1903 37.6724 23.668C39.6379 28.1457 38.9828 37.4211 35.7069 42.5385C33.0862 46.6324 21.9483 47.4426 16.7069 47.336L8.51724 56.2915V77.081L16.7069 79L25.2241 77.081C25.2241 72.7098 25.6828 63.3919 27.5172 61.0891C29.8103 58.2105 50.4483 55.0121 52.7414 47.336C54.5759 41.1951 56.3448 30.9177 57 26.5466C54.5977 21.5358 48.9414 11.0664 45.5345 9.2753C41.2759 7.03644 33.4138 0 25.2241 0C18.6724 0 11.3563 2.77193 8.51724 4.15789Z" fill="#FFF2D7"/>
<path d="M26 94.545C26 99.2146 21.9706 103 17 103C12.0294 103 8 99.2146 8 94.545C8 89.8754 8.0641 87.1917 17 86.09C23.4286 85.2974 26 89.8754 26 94.545Z" fill="#FFF2D7"/>
</svg>
